<svg width="497" height="508" viewBox="0 0 497 508" fill="none" xmlns="http://www.w3.org/2000/svg">
<g filter="url(#filter0_d)">
<path d="M492.5 106.5C467 108.5 459.5 118 458.5 140.5C455.5 113 446 109.5 423.5 106.5C447.5 104.5 455.5 96.5 458.5 71.5C461 92.5 463.5 103.5 492.5 106.5Z" fill="#6FBFE4"/>
</g>
<g filter="url(#filter1_d)">
<path d="M342.766 16C389.372 36 412.925 52.5 446 89.5C408.916 49 360.306 28 336.753 21.5C326.857 18.7689 313.51 15.5606 300.17 14C281.761 11.8464 263.364 11.9202 254.066 12.5C245.811 13.0147 235.994 14.2557 226.503 16C217.556 17.6445 208.956 19.7228 200.444 22.5C176.802 30.2144 160.855 38.5 160.855 38.5L146.823 46.5L132.791 55.5L112.746 71L95.2064 88.5L87.6893 97L80.1723 106.5C80.1723 106.5 71.6531 118.5 69.1474 122.5C66.6417 126.5 60.6281 137 60.6281 137C60.6281 137 48.6009 160 44.0907 175C39.5805 190 38.0771 195.5 35.5714 210C33.0658 224.5 32.0635 246.5 32.0635 246.5C32.0635 246.5 32.5646 269 33.5669 277C34.5692 285 38.5782 306 41.585 316C44.5918 326 50.1043 340.5 50.1043 340.5L56.619 354.5C56.619 354.5 61.1293 363.5 66.6417 372.5C72.1542 381.5 68.1451 376 78.1678 390C88.1905 404 94.7052 410 108.236 423.5C121.766 437 147.324 453 156.846 458.5C166.367 464 191.424 474.5 202.95 477.5C214.476 480.5 237.528 485.469 254.066 486.5C270.603 487.531 291.651 486.5 302.175 485C312.698 483.5 333.746 478.601 342.265 475.601C350.785 472.601 364.816 467.5 369.828 465C374.839 462.5 389.873 455 395.887 451C401.9 447 414.429 438 421.946 432C429.463 426 446 409.5 446 409.5C446 409.5 432.469 424.5 423.449 433C414.429 441.5 404.907 449 398.893 453C392.88 457 373.336 469 373.336 469C373.336 469 348.78 481 342.265 483C339.291 483.913 333.056 486.501 326.5 488.5C318.699 490.878 309 493.5 307 494C305 494.5 293.505 496.84 286.5 498C282.5 498.663 268.908 499.989 261 499.989C256.95 499.989 247.643 499.989 241 499.489C237 499.188 220.49 497 220.49 497C220.49 497 197.939 493 185.912 489.5C174.142 486.075 167.651 483.608 157.517 479.755L156.846 479.5C146.322 475.5 129.283 466 118.76 459.5C108.236 453 97.712 444.5 86.6871 435C75.6621 425.5 65.6395 413 58.1225 404.5C50.6054 396 42.5873 382 38.5782 376C34.5692 370 29.0567 359 25.0476 350.5C21.0385 342 15.0249 323.5 13.5215 319C12.0181 314.5 7.50794 292 6.50567 286C5.5034 280 4 254 4 246.5C4 239 5.5034 220.5 8.00907 205.5C10.5147 190.5 16.0272 173.5 16.0272 173.5C16.0272 173.5 23.5442 152 27.5533 143.5C31.5624 135 42.0862 117 42.0862 117L50.6054 104.5L59.1247 93L68.1451 82L78.6689 71.5L96.7098 55.5L116.254 41.5L135.798 29.5L156.846 19.5C156.846 19.5 174.887 13 178.896 11.5C182.905 10 195.934 7 201.447 5.5C206.959 4 219.989 2.5 228.007 1.5C236.025 0.5 254.066 0 254.066 0L276.617 1C276.617 1 288.644 2 299.168 4C309.692 6 322.721 9.5 322.721 9.5L342.766 16Z" fill="#103E72"/>
</g>
<g filter="url(#filter2_d)">
<path d="M223.5 64L233.5 63H225H219.5L214 64L209.5 65L203 67L197.5 69.5L193.5 72L189.5 75L185 78.5L181 82.5L178 86L175 90L169.5 98.5L166 105.5L162.5 113L159.5 121L157 129L155 137C155 137 153.5 142.5 153 144.5C152.5 146.5 151.643 152.5 151.5 153.5C151.357 154.5 150.5 160.5 150 163L149 170L148.5 178L148 188L147.5 200L148 218.5L148.5 227.5L149.5 237.5L152.5 255L156 272.5L161 290L163.5 298.5L166.5 307.5L172 321.5L178.5 335.5L187 352L191.5 360.5L196.5 368.5L203 378.5L210 388.5L217.5 398.5L225 408L233.5 417.5L242.5 427.5L257 442.5L260 446L263 449.5L266 453L269 457L273 462.5C273 462.5 274.5 464.5 275 465.5C275.5 466.5 276 467.5 277 469C278 470.5 279 473 279 473C279 473 280.5 477 281 476.5C281.5 476 281.5 474.5 281.5 474C281.5 473.5 281 471.5 283 468.5L281.5 465.5L274.5 455.5L267 446L260.5 439L253 431L246.5 424.5L239 416.5L231 407.5L225.5 400.5L217 389L213 383.5L209 377.5L204 370L196.5 358L189.5 345L183.5 333L178.5 322L175.5 314L172 304.5L169 296L166.5 287L162.5 270.5L159 254L157 242L155.5 227.5L154.5 212L154 197L154.5 183L156 169.5L157 158L160 144L162.5 132.5L167 118.5L170.5 109.5L177 96.5L185 85.5L191 79.5L198 73.5L205 69.5L211 67L218 65L223.5 64Z" fill="#92DDF2"/>
</g>
<g filter="url(#filter3_d)">
<path d="M327.5 87L308 95.5L297 100.5L291.5 103L285.5 105L277.5 107.5L269 109L263 109.5H257L250 108L244.5 106L239 103.5L234.5 101.5L238 102.5L241.5 103L244.5 103.5L249 104H256L263.5 103.5L272 102L278.5 100L287.5 97L293.5 94.5L298.5 92L304.5 89L309.5 85.5L306.5 86H303.5L305 85L301 86L296 85.5L291.5 84L284.5 81L276.5 77L268.5 72.5L261.5 69L254 66C254 66 249.5 64.5 246.5 64C243.5 63.5 239 63 239 63C239 63 233.5 62.5 232 62.5C230.5 62.5 224 63 224 63L217 64.5L211 66C211 66 206.5 68 203.5 69.5C200.5 71 196 74 196 74L189 80L184 85.5L180.5 90L175.5 98L169.5 109.5L165 121L161.5 132L158.5 146.5L155.5 162.5L154 178L153 193.5L153.5 214.5L155 235L158 255L162.5 275L165 284.5L168 294.5L174.5 313.5L182.5 332L191.5 350.5L200.5 366L210.5 381.5L221 396L233 410.5L239.75 418.25L247 426L254.25 433.5L261.5 441L269 449.5L275 457.5L278 461.5L281 466L284 472L286 476C286 476 287 473.5 287.5 470.5C288 467.5 288 464 288 462C288 460 287.229 455.707 287 453C286.771 450.293 285.417 444.655 284 440.5C284 440.5 282.417 436.161 280.5 432C279.07 428.896 274.855 420.995 274 419.5C272 416 263 402 263 402L253.5 385.5L249 376.5L243 362.5L238.5 350C238.5 350 235.5 340 234.5 336C233.5 332 231.5 323 231 315.5C230.788 312.314 229.966 305.829 230 300C230 296 230.5 289 231 285C231.5 281 232.5 276 233 274C233.5 272 235 266 236.5 262C237.232 260.047 239.112 256.719 241.5 254.5C244.002 252.174 245.5 251.5 247 251C248.5 250.5 249 250.5 252 250.5C253.444 250.5 255.539 250.963 257 251.5C258.574 252.078 258.981 252.241 259.5 252.5C260.5 253 263 255 263.5 255.5C264 256 265.757 257.676 267.5 260C269.243 262.324 271 266.5 271 266.5L273 271L275 276.5L276.5 281.5L278.5 288.5L280 296L281.5 304L282.25 311.25L283 319L283.5 328L284 333L284.5 336.25C284.5 336.25 284.921 339.263 285 339.5L286.5 344C286.5 344 288 347.5 288.5 348.5C289 349.5 290 351 291 352.5C291.502 353.253 292.369 355.058 294 356.5C294.799 357.206 296.444 358.608 298.5 359.5C300.614 360.417 303.5 361 303.5 361H306C306.5 361 309.5 360.5 309.5 360.5L312 360L314.5 359L317 357.5L320.5 355L324.5 351.5L328 348L331.5 344L337 336.5L340 331.5L343 326L349.5 313.5L355 301L369 269L375.5 252.5L381 237.5L387.5 218.5L390.5 209L392.5 201.5L395.5 191.5L398 181.5L400.5 170L402 161.5L405 146L406 130.5L405.75 126L405.5 121.5L404.5 115L403 109.5L400.5 103L397 96L392.5 90.5L388 86L384 83L380 80.5L375.5 78.5L371.5 77.5L365.5 76.5H360L351.5 77.5L343.5 79.5L335 83.5L327.5 87Z" fill="#6FBFE4"/>
</g>
<g filter="url(#filter4_i)">
<path d="M395 128C369.5 130 362 139.5 361 162C358 134.5 348.5 131 326 128C350 126 358 118 361 93C363.5 114 366 125 395 128Z" fill="white"/>
</g>
<defs>
<filter id="filter0_d" x="419.5" y="71.5" width="77" height="77" filterUnits="userSpaceOnUse" color-interpolation-filters="sRGB">
<feFlood flood-opacity="0" result="BackgroundImageFix"/>
<feColorMatrix in="SourceAlpha" type="matrix" values="0 0 0 0 0 0 0 0 0 0 0 0 0 0 0 0 0 0 127 0"/>
<feOffset dy="4"/>
<feGaussianBlur stdDeviation="2"/>
<feColorMatrix type="matrix" values="0 0 0 0 0 0 0 0 0 0 0 0 0 0 0 0 0 0 0.25 0"/>
<feBlend mode="normal" in2="BackgroundImageFix" result="effect1_dropShadow"/>
<feBlend mode="normal" in="SourceGraphic" in2="effect1_dropShadow" result="shape"/>
</filter>
<filter id="filter1_d" x="0" y="0" width="450" height="507.989" filterUnits="userSpaceOnUse" color-interpolation-filters="sRGB">
<feFlood flood-opacity="0" result="BackgroundImageFix"/>
<feColorMatrix in="SourceAlpha" type="matrix" values="0 0 0 0 0 0 0 0 0 0 0 0 0 0 0 0 0 0 127 0"/>
<feOffset dy="4"/>
<feGaussianBlur stdDeviation="2"/>
<feColorMatrix type="matrix" values="0 0 0 0 0 0 0 0 0 0 0 0 0 0 0 0 0 0 0.25 0"/>
<feBlend mode="normal" in2="BackgroundImageFix" result="effect1_dropShadow"/>
<feBlend mode="normal" in="SourceGraphic" in2="effect1_dropShadow" result="shape"/>
</filter>
<filter id="filter2_d" x="143.5" y="63" width="143.5" height="421.543" filterUnits="userSpaceOnUse" color-interpolation-filters="sRGB">
<feFlood flood-opacity="0" result="BackgroundImageFix"/>
<feColorMatrix in="SourceAlpha" type="matrix" values="0 0 0 0 0 0 0 0 0 0 0 0 0 0 0 0 0 0 127 0"/>
<feOffset dy="4"/>
<feGaussianBlur stdDeviation="2"/>
<feColorMatrix type="matrix" values="0 0 0 0 0 0 0 0 0 0 0 0 0 0 0 0 0 0 0.25 0"/>
<feBlend mode="normal" in2="BackgroundImageFix" result="effect1_dropShadow"/>
<feBlend mode="normal" in="SourceGraphic" in2="effect1_dropShadow" result="shape"/>
</filter>
<filter id="filter3_d" x="149" y="62.5" width="261" height="421.5" filterUnits="userSpaceOnUse" color-interpolation-filters="sRGB">
<feFlood flood-opacity="0" result="BackgroundImageFix"/>
<feColorMatrix in="SourceAlpha" type="matrix" values="0 0 0 0 0 0 0 0 0 0 0 0 0 0 0 0 0 0 127 0"/>
<feOffset dy="4"/>
<feGaussianBlur stdDeviation="2"/>
<feColorMatrix type="matrix" values="0 0 0 0 0 0 0 0 0 0 0 0 0 0 0 0 0 0 0.25 0"/>
<feBlend mode="normal" in2="BackgroundImageFix" result="effect1_dropShadow"/>
<feBlend mode="normal" in="SourceGraphic" in2="effect1_dropShadow" result="shape"/>
</filter>
<filter id="filter4_i" x="326" y="93" width="69" height="73" filterUnits="userSpaceOnUse" color-interpolation-filters="sRGB">
<feFlood flood-opacity="0" result="BackgroundImageFix"/>
<feBlend mode="normal" in="SourceGraphic" in2="BackgroundImageFix" result="shape"/>
<feColorMatrix in="SourceAlpha" type="matrix" values="0 0 0 0 0 0 0 0 0 0 0 0 0 0 0 0 0 0 127 0" result="hardAlpha"/>
<feOffset dy="4"/>
<feGaussianBlur stdDeviation="2"/>
<feComposite in2="hardAlpha" operator="arithmetic" k2="-1" k3="1"/>
<feColorMatrix type="matrix" values="0 0 0 0 0 0 0 0 0 0 0 0 0 0 0 0 0 0 0.25 0"/>
<feBlend mode="normal" in2="shape" result="effect1_innerShadow"/>
</filter>
</defs>
</svg>
