<?xml version="1.0" standalone="no"?>
<!DOCTYPE svg PUBLIC "-//W3C//DTD SVG 20010904//EN"
 "http://www.w3.org/TR/2001/REC-SVG-20010904/DTD/svg10.dtd">
<svg version="1.0" xmlns="http://www.w3.org/2000/svg"
 width="1016.000000pt" height="1016.000000pt" viewBox="0 0 1016.000000 1016.000000"
 preserveAspectRatio="xMidYMid meet">
<metadata>
Created by potrace 1.11, written by Peter Selinger 2001-2013
</metadata>
<g transform="translate(0.000000,1016.000000) scale(0.100000,-0.100000)"
fill="#000000" stroke="none">
<path d="M4988 10154 c-2 -1 -56 -5 -121 -9 -65 -3 -132 -8 -150 -10 -18 -3
-57 -7 -87 -11 -30 -4 -68 -8 -85 -10 -16 -3 -43 -6 -60 -8 -108 -13 -152 -19
-170 -22 -11 -3 -36 -7 -55 -10 -40 -6 -57 -10 -120 -24 -25 -6 -52 -12 -60
-13 -9 -2 -21 -7 -28 -11 -7 -4 -16 -5 -19 -2 -3 3 -12 1 -18 -4 -7 -6 -25
-12 -41 -14 -16 -3 -56 -12 -89 -21 -33 -8 -67 -17 -75 -19 -8 -2 -35 -10 -60
-17 -25 -7 -47 -13 -50 -13 -5 -1 -27 -10 -110 -41 -19 -8 -75 -28 -125 -46
-136 -48 -253 -94 -320 -127 -92 -45 -149 -70 -155 -69 -3 1 -19 -8 -37 -21
-17 -12 -34 -22 -37 -22 -14 0 -143 -66 -156 -80 -3 -3 -50 -33 -105 -65 -116
-70 -195 -120 -213 -135 -6 -6 -12 -8 -12 -6 0 4 -315 -219 -355 -252 -5 -4
-14 -10 -20 -13 -5 -2 -30 -23 -55 -46 -54 -51 -86 -79 -176 -158 -37 -33 -81
-72 -96 -87 -16 -16 -30 -28 -33 -28 -6 0 -220 -217 -257 -262 -31 -37 -125
-153 -161 -198 -7 -8 -43 -58 -82 -110 -38 -52 -73 -96 -77 -98 -5 -2 -8 -10
-8 -18 0 -8 -4 -14 -10 -14 -5 0 -10 -5 -10 -10 0 -6 -18 -35 -40 -65 -22 -30
-40 -59 -40 -65 0 -5 -4 -10 -8 -10 -4 0 -24 -27 -43 -60 -18 -33 -37 -60 -41
-60 -5 0 -8 -6 -8 -12 0 -7 -10 -29 -22 -48 -12 -19 -22 -37 -23 -40 0 -3 -16
-32 -35 -65 -19 -33 -43 -73 -52 -90 -10 -16 -43 -82 -75 -145 -32 -63 -60
-117 -63 -120 -3 -3 -7 -14 -8 -25 -2 -11 -8 -23 -14 -26 -5 -3 -9 -9 -8 -13
2 -6 -20 -68 -50 -141 -10 -25 -22 -57 -26 -70 -24 -78 -92 -244 -99 -238 -4
5 -5 3 -2 -3 3 -6 -1 -33 -9 -60 -9 -27 -17 -56 -19 -64 -2 -8 -4 -15 -5 -15
-1 0 -3 -8 -6 -17 -6 -28 -10 -42 -17 -58 -7 -18 -36 -134 -43 -170 -2 -14 -9
-36 -14 -50 -5 -14 -12 -43 -15 -65 -7 -44 -13 -70 -15 -70 -1 0 -3 -16 -6
-35 -5 -41 -12 -75 -14 -75 -2 0 -5 -17 -15 -95 -9 -71 -10 -74 -18 -87 -5 -8
-3 -13 3 -13 7 0 8 -6 2 -17 -5 -10 -10 -38 -11 -63 -2 -42 -7 -85 -11 -85 -1
0 -3 -18 -5 -40 -8 -99 -16 -212 -16 -230 0 -10 -5 -26 -12 -34 -10 -12 -9
-13 2 -6 11 6 13 4 7 -11 -11 -29 -5 -422 8 -442 3 -6 2 -13 -3 -16 -6 -4 -6
-18 -1 -35 4 -16 7 -52 7 -80 -1 -28 3 -53 8 -56 6 -3 5 -7 -3 -11 -6 -3 -9
-11 -5 -17 4 -7 9 -23 10 -37 1 -14 5 -63 8 -110 4 -47 7 -97 7 -113 0 -15 3
-27 7 -27 4 0 8 -15 10 -33 4 -41 9 -72 11 -72 2 0 9 -45 11 -77 1 -16 5 -28
10 -28 4 0 6 -18 5 -39 0 -22 3 -37 7 -34 5 3 7 -5 6 -18 -2 -13 0 -30 5 -37
4 -7 2 -19 -5 -28 -10 -12 -9 -13 6 -8 13 5 16 4 11 -4 -4 -7 -2 -12 4 -12 6
0 9 -3 6 -8 -2 -4 0 -27 5 -52 10 -47 19 -96 21 -117 1 -7 4 -13 7 -13 6 0 11
-26 14 -67 0 -7 5 -13 10 -13 5 0 7 -13 5 -29 -2 -17 0 -29 4 -28 9 2 35 -62
40 -98 2 -11 6 -22 10 -25 4 -3 9 -15 11 -25 2 -11 7 -29 11 -40 5 -11 15 -38
23 -60 8 -22 14 -41 14 -43 -1 -1 6 -19 15 -40 8 -20 16 -45 17 -55 1 -9 6
-17 11 -17 5 0 6 -3 3 -6 -4 -4 0 -19 7 -33 8 -14 25 -51 39 -81 13 -30 35
-76 47 -102 12 -26 18 -53 14 -59 -4 -7 -3 -9 3 -6 5 3 32 -37 58 -91 27 -53
59 -113 71 -132 13 -19 24 -42 26 -50 2 -8 9 -21 16 -29 7 -7 11 -20 8 -27 -3
-7 0 -16 6 -20 7 -4 8 -3 4 4 -4 7 -2 12 3 12 6 0 11 -6 11 -13 0 -7 8 -22 18
-33 11 -11 18 -27 16 -37 -1 -9 1 -15 5 -13 4 3 35 -39 68 -92 57 -89 71 -121
50 -114 -5 1 -6 -2 -2 -7 3 -6 12 -8 20 -4 10 3 19 -5 28 -26 7 -17 16 -28 20
-24 6 6 11 -11 8 -29 0 -5 4 -8 11 -8 6 0 9 -3 6 -6 -3 -3 9 -22 28 -42 19
-20 40 -49 47 -65 6 -15 19 -27 27 -27 13 0 13 -1 0 -10 -13 -8 -12 -10 3 -10
15 0 22 -11 18 -33 0 -4 2 -6 6 -5 5 2 20 -10 35 -25 15 -15 25 -27 21 -27 -3
0 9 -13 26 -29 17 -16 31 -33 31 -38 0 -4 9 -14 20 -21 11 -7 20 -19 20 -27 0
-8 6 -15 14 -15 13 0 31 -27 28 -43 -1 -4 2 -6 6 -5 5 2 23 -12 39 -30 17 -17
28 -32 25 -32 -4 0 -1 -4 7 -9 13 -8 13 -12 0 -28 -13 -16 -12 -17 3 -5 15 12
20 12 32 -1 8 -8 12 -17 9 -21 -4 -3 1 -6 11 -6 9 0 15 -4 12 -9 -3 -5 1 -12
10 -15 8 -3 12 -11 9 -16 -4 -6 -2 -9 3 -8 12 4 148 -132 144 -144 -1 -4 3 -8
9 -8 16 0 69 -47 62 -54 -4 -3 0 -6 9 -6 19 0 51 -34 41 -44 -4 -4 0 -4 10 0
12 4 17 1 17 -11 0 -9 4 -13 10 -10 5 3 15 -3 22 -15 7 -11 18 -20 24 -20 6 0
20 -10 31 -22 21 -24 35 -35 95 -82 21 -15 35 -33 31 -39 -3 -6 -1 -7 6 -3 7
5 20 -1 30 -13 10 -11 21 -18 25 -14 10 10 7 -12 -4 -25 -7 -9 -7 -9 2 -2 18
15 31 12 24 -6 -3 -8 -2 -12 4 -9 12 7 52 -13 63 -31 4 -8 14 -14 20 -14 7 0
19 -9 27 -20 8 -11 20 -20 27 -20 7 0 13 -5 13 -10 0 -6 6 -9 13 -8 6 2 11 -3
9 -10 -1 -6 1 -11 5 -10 17 4 73 -33 67 -44 -4 -6 -3 -8 4 -5 13 9 44 -2 37
-13 -3 -5 -1 -11 5 -15 5 -3 10 -1 10 5 0 7 5 6 14 -2 8 -7 12 -17 9 -21 -3
-5 1 -8 8 -6 25 3 35 -1 59 -24 14 -12 27 -22 30 -21 16 3 40 -10 40 -22 0 -8
10 -14 25 -14 14 0 25 -4 25 -8 0 -4 16 -14 35 -21 19 -7 33 -17 29 -22 -3 -6
0 -10 7 -8 31 4 41 -1 35 -17 -5 -14 -4 -15 9 -4 8 7 15 8 15 3 0 -6 18 -18
40 -28 22 -10 40 -22 40 -27 0 -5 3 -7 8 -4 11 6 84 -29 75 -37 -3 -4 3 -7 15
-7 12 0 22 -5 22 -11 0 -5 5 -7 10 -4 6 3 10 -2 10 -12 0 -13 3 -14 8 -6 6 10
23 5 68 -18 32 -17 59 -30 59 -29 0 3 60 -20 77 -30 10 -6 25 -10 33 -10 8 0
15 -4 15 -8 0 -5 6 -9 13 -10 27 -2 46 -8 60 -20 12 -10 16 -10 20 0 4 9 6 7
6 -4 1 -11 8 -16 21 -13 11 2 24 -3 30 -13 5 -9 10 -12 10 -5 0 8 13 6 42 -7
23 -10 46 -16 50 -14 13 8 9 -10 -4 -26 -7 -8 -3 -6 10 4 12 11 22 15 22 10 0
-5 12 -10 26 -11 28 -1 47 -20 39 -40 -2 -7 0 -15 5 -18 4 -3 7 6 6 19 -3 24
0 25 42 9 22 -8 42 -13 65 -15 9 -1 17 -9 18 -18 0 -10 2 -11 6 -3 3 10 10 10
25 2 11 -6 22 -8 25 -5 3 3 15 0 27 -6 25 -15 27 -15 67 -17 16 0 28 -5 25
-10 -3 -5 0 -9 7 -8 37 1 68 -4 63 -11 -2 -4 11 -7 30 -7 19 1 34 -3 34 -8 0
-5 12 -7 26 -4 14 2 31 -2 40 -10 11 -11 14 -12 14 -1 0 9 3 9 8 2 4 -6 15
-10 25 -8 9 1 17 -1 17 -4 0 -4 10 -7 23 -8 12 0 42 -4 67 -8 25 -5 52 -9 60
-11 8 -1 15 -7 15 -13 0 -6 4 -14 9 -19 5 -5 6 -3 2 4 -7 12 6 18 29 13 16 -3
55 -8 125 -16 36 -3 67 -11 68 -16 2 -5 11 -3 20 4 13 11 15 11 10 -2 -4 -11
1 -15 17 -15 13 0 21 3 19 7 -2 4 8 5 23 3 16 -1 27 -8 25 -14 -1 -8 4 -9 15
-3 10 4 27 7 38 6 11 -1 32 -4 48 -5 20 -3 26 -8 22 -19 -4 -13 -4 -13 7 0 15
17 58 15 58 -3 0 -7 4 -6 9 2 8 13 12 13 27 0 10 -8 15 -9 11 -3 -3 6 0 11 8
11 8 0 11 -5 8 -11 -5 -8 -2 -8 8 -1 12 9 71 12 89 5 18 -6 52 -5 56 2 3 5 12
4 19 -2 7 -6 16 -7 18 -3 5 7 62 9 62 3 0 -2 14 -4 30 -5 46 -4 47 -4 41 -13
-3 -5 1 -9 9 -9 11 0 12 4 3 14 -16 19 -3 27 15 9 13 -14 16 -14 27 -1 9 11
16 12 25 5 6 -5 15 -7 19 -3 11 11 60 10 68 -2 5 -6 8 -5 8 4 0 11 3 11 17 0
9 -8 14 -9 10 -3 -4 8 12 12 51 13 57 2 107 7 107 10 0 1 26 4 57 6 32 2 67 6
78 10 14 4 19 2 17 -7 -2 -7 -2 -10 0 -5 3 4 9 5 14 1 5 -3 8 0 7 7 -3 10 31
18 95 22 9 1 17 4 17 7 0 4 16 7 100 13 14 1 29 7 33 12 6 6 10 6 14 -2 6 -16
24 -17 21 -2 -4 14 22 20 84 22 25 1 44 5 42 9 -3 4 15 12 38 18 24 6 65 17
92 25 27 8 53 12 58 9 4 -3 8 -1 8 5 0 5 9 8 20 6 11 -2 20 0 20 4 0 5 9 11
20 14 12 3 18 1 14 -5 -4 -6 5 -2 20 7 14 10 26 14 26 9 0 -4 5 -3 12 4 17 17
26 15 31 -5 4 -14 5 -14 6 3 1 20 19 29 79 36 6 1 12 5 12 9 0 4 9 6 20 4 11
-2 20 -1 20 3 0 13 69 30 74 18 2 -6 5 -3 5 7 1 15 18 22 44 18 4 0 7 4 7 11
0 6 3 8 6 5 4 -3 15 -2 26 4 23 12 55 21 85 23 11 0 19 4 16 9 -4 7 13 16 39
21 7 1 27 10 45 19 24 13 33 14 36 4 3 -7 6 -5 6 6 1 20 21 22 41 5 12 -11 12
-10 2 4 -14 18 -6 27 21 23 9 -2 15 1 12 5 -5 8 33 26 48 22 4 -1 7 3 7 9 0 5
5 7 10 4 6 -3 10 -1 10 5 0 6 5 8 10 5 6 -3 10 -2 10 4 0 5 9 8 20 6 11 -2 18
0 16 4 -3 4 15 17 39 28 25 11 45 17 45 12 0 -5 4 -9 10 -9 5 0 6 8 3 17 -5
13 -2 15 11 10 9 -4 15 -3 12 2 -6 9 51 36 68 32 4 -1 14 6 22 16 7 10 14 14
14 8 0 -7 3 -7 8 0 9 13 42 34 65 41 9 4 17 11 17 16 0 5 5 6 10 3 6 -3 10 -1
10 5 0 7 7 9 16 6 8 -3 12 -2 9 4 -3 5 5 12 19 16 13 3 27 12 30 20 3 8 12 14
21 14 8 0 15 5 15 10 0 6 7 10 16 10 8 0 13 -4 9 -9 -3 -5 -1 -12 4 -16 6 -3
8 3 6 15 -3 14 5 25 23 37 15 9 63 39 107 68 44 29 91 58 104 65 14 7 34 21
45 31 11 11 25 19 32 19 6 0 14 7 18 15 3 8 12 15 21 15 8 0 15 5 15 12 0 6 3
9 6 5 4 -3 15 4 25 16 10 12 18 19 19 15 0 -3 13 6 29 20 62 57 114 97 123 94
5 -1 7 2 3 7 -7 13 32 34 47 25 7 -4 8 -3 4 5 -5 7 4 24 23 42 17 16 31 27 31
24 0 -3 27 23 61 57 34 35 65 62 70 60 5 -1 9 2 9 8 0 5 45 55 100 111 55 56
100 105 100 110 0 5 6 9 14 9 8 0 16 7 20 15 10 28 -9 15 -90 -63 -107 -102
-184 -169 -269 -237 -38 -31 -81 -65 -93 -75 -13 -11 -27 -20 -32 -20 -4 0
-13 -7 -20 -15 -6 -8 -35 -30 -63 -50 -29 -19 -83 -57 -122 -85 -38 -28 -78
-56 -89 -63 -10 -6 -29 -20 -41 -29 -13 -10 -28 -18 -33 -18 -6 0 -12 -4 -14
-8 -3 -9 -186 -112 -199 -112 -4 0 -9 -3 -11 -7 -3 -7 -315 -167 -327 -169 -3
0 -28 -10 -56 -23 -27 -13 -54 -24 -60 -25 -5 -2 -27 -10 -49 -19 -21 -9 -42
-17 -47 -17 -5 0 -17 -4 -27 -9 -63 -34 -379 -138 -528 -175 -55 -13 -112 -27
-129 -32 -34 -8 -31 -7 -110 -24 -33 -7 -69 -14 -80 -16 -11 -1 -21 -3 -22 -4
-5 -4 -15 -6 -68 -15 -48 -7 -64 -10 -102 -19 -29 -6 -157 -20 -167 -18 -4 2
-14 -3 -22 -9 -11 -9 -14 -9 -14 0 0 7 -4 10 -9 7 -12 -8 -160 -17 -322 -20
-75 -2 -142 -6 -148 -10 -6 -4 -11 -4 -11 1 0 4 -53 8 -118 9 -123 0 -279 9
-347 19 -22 4 -60 8 -85 10 -25 2 -47 5 -50 6 -3 1 -9 3 -15 4 -5 2 -12 4 -15
5 -3 1 -18 3 -35 4 -26 3 -94 13 -128 20 -7 2 -34 6 -62 10 -27 4 -57 10 -65
13 -8 3 -24 7 -35 8 -11 1 -36 6 -55 10 -19 5 -41 8 -47 6 -7 -1 -13 2 -13 6
0 4 -10 8 -22 9 -13 0 -34 3 -48 6 -65 15 -239 60 -275 73 -80 27 -301 107
-332 121 -18 8 -48 20 -65 28 -18 8 -51 22 -73 32 -22 9 -42 18 -45 19 -61 22
-257 118 -347 171 -51 30 -97 54 -102 54 -6 0 -11 5 -11 10 0 6 -10 15 -22 19
-13 5 -68 39 -122 75 -55 36 -103 66 -108 66 -4 0 -8 5 -8 10 0 6 -7 10 -15
10 -8 0 -15 4 -15 8 0 4 -15 16 -32 27 -48 28 -293 209 -369 274 -89 74 -458
445 -545 547 -90 104 -193 240 -264 345 -8 12 -30 42 -47 65 -18 24 -30 44
-25 44 4 0 2 4 -4 8 -11 8 -84 126 -84 136 0 4 -5 12 -11 19 -22 26 -106 176
-101 182 3 3 0 5 -7 5 -7 0 -9 5 -6 10 3 6 2 10 -3 10 -5 0 -14 12 -21 28 -7
15 -11 27 -9 27 1 0 -7 14 -20 32 -12 17 -22 34 -22 36 0 3 -19 45 -42 94 -23
48 -43 90 -43 93 -1 3 -15 34 -32 70 -37 80 -53 126 -46 134 4 3 2 6 -4 6 -8
0 -33 60 -38 90 0 3 -3 10 -6 15 -4 6 -12 28 -18 50 -7 22 -16 49 -21 60 -20
47 -27 72 -32 113 -1 6 -4 12 -8 12 -4 0 -7 6 -8 13 0 6 -13 55 -27 107 -15
52 -28 104 -31 115 -2 11 -11 52 -19 90 -8 39 -17 81 -19 95 -3 14 -12 61 -21
105 -24 118 -26 127 -28 168 0 20 -4 37 -7 37 -3 0 -7 10 -8 23 -1 12 -4 40
-7 62 -10 80 -15 152 -20 272 -2 68 -7 127 -10 133 -3 5 -2 10 3 10 5 0 9 7 9
15 0 8 -3 15 -6 15 -9 0 -6 74 4 90 5 8 4 11 -2 7 -8 -5 -10 23 -8 86 2 50 4
92 5 92 1 0 3 34 5 75 5 107 14 232 19 255 3 11 5 35 5 53 1 24 5 31 14 26 8
-6 8 -3 -2 9 -9 12 -11 24 -4 44 6 16 9 38 8 51 -1 12 2 22 7 22 5 0 7 4 4 9
-8 12 5 102 13 97 3 -2 7 15 8 37 5 73 10 107 16 114 4 3 7 17 7 30 0 16 4 22
12 17 10 -5 10 -4 1 6 -12 13 -7 40 11 52 7 5 7 8 -2 8 -9 0 -10 5 -3 19 6 10
7 21 4 25 -3 3 -2 6 3 6 5 0 10 8 11 18 3 27 10 67 12 67 2 0 4 7 6 15 1 8 8
35 16 60 7 25 14 54 16 65 2 10 11 30 19 43 9 14 11 21 4 17 -9 -6 -9 -3 -1
12 6 11 7 23 4 27 -3 3 -1 6 5 6 6 0 9 9 7 20 -2 11 1 20 7 20 6 0 8 3 5 7 -4
3 -2 12 4 20 6 7 8 13 5 13 -4 0 -2 9 4 21 7 11 14 33 16 47 3 15 10 29 15 33
6 3 11 10 12 15 1 5 6 8 11 6 5 -2 4 3 -2 11 -9 11 -7 24 12 60 14 25 22 48
19 51 -4 3 -1 6 6 6 7 0 9 5 6 10 -3 6 -1 10 5 10 6 0 9 4 5 9 -3 5 -1 12 5
16 5 3 10 15 10 26 0 13 4 18 12 13 7 -4 8 -3 4 4 -4 6 1 26 11 44 17 33 19
39 22 59 0 5 6 7 13 3 6 -4 8 -3 4 4 -3 6 3 27 14 46 11 20 20 37 19 39 -2 12
15 35 24 30 6 -3 7 -1 3 6 -4 6 -2 18 4 26 6 8 9 19 5 25 -3 5 -1 10 4 10 6 0
11 7 11 15 0 8 4 15 9 15 5 0 12 14 16 30 4 17 11 30 16 30 5 0 9 7 9 15 0 8
9 23 20 32 11 10 20 24 20 31 0 22 70 133 80 127 5 -3 12 -1 15 5 4 6 3 10 -2
9 -18 -3 -28 1 -18 9 6 4 23 27 38 52 30 48 70 107 87 127 5 7 10 15 10 18 0
3 5 11 10 18 6 7 32 42 58 79 27 38 52 65 57 60 4 -4 5 -1 0 7 -4 7 -4 16 1
20 5 3 22 24 39 46 16 22 37 47 47 56 10 9 18 21 18 26 0 14 35 44 43 38 4 -3
5 -2 2 1 -9 13 29 64 44 59 9 -3 12 -3 9 1 -11 11 12 46 27 41 9 -4 11 1 7 16
-5 19 -3 20 11 9 14 -12 16 -11 12 7 -2 12 0 22 6 22 5 1 13 2 19 3 5 0 15 8
22 16 11 12 11 12 -4 1 -10 -7 -18 -9 -18 -3 0 15 26 33 35 24 5 -4 5 -2 2 4
-7 13 40 57 53 49 5 -3 12 0 16 6 5 8 3 9 -6 4 -8 -5 -11 -3 -8 6 3 8 11 13
17 11 7 -1 10 1 7 6 -6 10 84 98 96 94 4 -1 7 1 6 5 -4 13 45 63 55 56 6 -3 7
-1 4 4 -8 13 27 46 37 36 4 -5 6 -3 4 3 -2 6 16 30 38 52 40 40 63 55 48 30
-4 -7 -3 -8 5 -4 6 4 9 12 6 17 -9 13 9 11 26 -3 12 -11 12 -11 2 2 -18 19
-16 33 3 26 8 -3 13 -2 10 3 -7 11 52 53 64 46 6 -3 7 1 4 9 -5 12 0 16 17 16
19 0 21 2 9 10 -13 8 -12 10 3 10 9 0 17 5 17 12 0 6 3 8 7 5 3 -4 17 5 30 19
12 14 23 23 23 20 0 -6 28 16 55 42 8 6 19 12 25 12 6 0 9 4 5 9 -3 5 5 13 17
17 13 4 30 15 39 25 9 11 21 19 28 19 6 0 11 5 11 10 0 6 5 10 11 10 6 0 17 7
25 15 9 8 24 15 34 15 10 0 21 7 24 16 4 9 13 14 22 10 8 -3 12 -2 9 4 -3 5 5
15 19 22 14 6 26 15 26 20 0 5 5 6 10 3 6 -3 10 -2 10 3 0 17 32 23 49 10 14
-12 14 -11 2 5 -12 15 -9 21 12 18 4 0 7 3 7 9 0 11 60 44 60 33 0 -5 5 0 11
10 5 9 17 17 25 17 9 0 12 -5 8 -12 -4 -7 -3 -8 5 -4 6 4 9 11 6 16 -7 11 43
42 55 35 6 -3 10 -2 10 4 0 11 60 47 73 43 4 -1 10 5 13 13 4 8 10 15 16 15 5
0 34 11 65 25 30 14 60 27 66 28 6 1 18 8 26 15 7 7 20 11 28 8 8 -3 11 -1 8
4 -3 6 -2 10 4 10 5 0 22 5 38 12 15 6 31 11 36 10 4 -1 7 3 7 9 0 5 5 7 10 4
6 -3 10 -1 10 5 0 6 4 9 9 5 5 -3 13 0 16 6 4 5 13 8 21 5 8 -3 14 -1 14 4 0
5 7 6 17 3 10 -4 14 -2 10 4 -8 13 39 27 55 17 7 -4 8 -3 4 4 -6 11 0 14 20
11 4 0 10 3 13 9 3 5 26 16 51 24 25 9 54 19 65 24 16 6 18 5 10 -7 -5 -8 -2
-6 8 4 9 11 17 16 17 12 0 -4 6 -3 13 2 14 11 132 49 132 42 0 -2 11 4 24 13
13 9 30 14 37 11 8 -3 14 0 14 5 0 6 8 11 18 10 9 0 31 4 48 10 23 7 35 7 44
-1 9 -9 11 -9 8 2 -3 15 56 34 80 26 8 -3 10 0 6 6 -5 8 3 10 24 7 17 -2 29
-1 27 3 -6 8 54 21 66 13 5 -3 9 0 9 7 0 6 8 9 20 6 10 -3 21 0 24 7 3 7 5 7
5 -1 1 -7 6 -13 12 -13 5 0 7 5 4 10 -5 9 24 15 49 11 4 -1 15 4 24 11 13 11
14 11 7 -2 -8 -13 -6 -13 8 -1 9 7 24 11 32 7 8 -3 15 -2 15 3 0 5 15 9 33 8
17 0 39 2 47 4 8 2 14 -1 15 -8 0 -6 3 -15 7 -19 4 -3 6 3 3 15 -3 15 1 21 16
22 10 1 29 2 42 3 12 1 28 -2 35 -7 9 -7 11 -6 7 5 -4 10 4 15 30 16 19 2 36
-2 36 -8 3 -25 4 -29 10 -34 3 -4 6 6 5 21 -1 26 2 27 49 31 28 2 92 4 142 5
51 1 93 4 93 7 0 3 38 5 84 5 47 1 82 -3 80 -7 -3 -4 0 -8 5 -8 6 0 11 5 11
10 0 6 5 10 11 10 5 0 7 -6 3 -12 -6 -10 -4 -10 7 -2 21 15 139 10 150 -7 7
-11 9 -10 9 4 0 10 4 16 9 13 5 -3 29 -7 54 -7 30 -2 44 -6 40 -13 -4 -6 1 -5
10 3 14 11 20 11 32 1 8 -7 15 -8 15 -3 0 6 17 9 38 7 20 -2 37 -4 37 -4 0 -1
12 -3 26 -4 14 -2 32 -6 39 -11 9 -5 11 -4 6 3 -5 8 2 10 25 5 17 -3 49 -6 70
-7 28 -1 39 -5 39 -16 0 -9 3 -11 8 -5 4 6 14 9 22 9 8 -1 30 -2 48 -3 24 -1
31 -5 26 -13 -6 -9 -3 -9 9 0 9 8 21 11 26 8 5 -4 29 -9 53 -12 24 -4 49 -11
57 -18 12 -8 13 -8 7 2 -10 17 -1 15 18 -4 9 -8 16 -11 16 -6 0 9 38 4 100
-13 14 -4 33 -7 43 -6 13 0 17 -5 13 -16 -5 -12 -4 -13 7 -5 9 8 24 9 45 3 17
-5 33 -7 36 -3 3 3 6 0 6 -5 0 -6 8 -10 18 -9 9 2 34 -3 55 -10 53 -19 52 -18
49 -26 -1 -5 2 -8 8 -8 5 0 10 5 10 10 0 6 5 10 11 10 5 0 8 -4 5 -8 -3 -4 7
-8 22 -8 15 1 27 -4 27 -11 0 -6 4 -15 8 -20 5 -4 7 -3 5 2 -1 6 -1 12 2 14 9
9 139 -33 133 -43 -3 -5 -1 -6 6 -2 13 9 97 -20 125 -43 14 -11 17 -12 11 -2
-5 9 -3 12 6 9 8 -3 13 -10 12 -15 -1 -6 9 -9 23 -7 20 2 24 -1 20 -13 -5 -12
-3 -13 7 -5 17 14 42 -1 31 -19 -6 -12 -5 -12 8 -1 13 10 21 10 44 0 16 -7 31
-15 34 -18 3 -3 10 -6 15 -7 6 -1 32 -11 58 -22 33 -14 46 -25 41 -33 -5 -10
-4 -10 5 -2 18 16 84 -15 76 -36 -5 -11 -3 -12 6 -3 12 12 45 1 60 -20 3 -5 8
-7 10 -5 4 3 140 -62 149 -72 3 -3 37 -21 75 -42 39 -20 69 -41 68 -47 -2 -6
4 -8 12 -5 8 4 15 1 15 -6 0 -6 5 -8 12 -4 6 4 17 -1 24 -10 7 -10 16 -18 21
-19 4 -1 7 -5 6 -9 -2 -4 3 -5 11 -2 7 3 20 -1 27 -8 8 -7 30 -22 51 -32 20
-11 47 -28 60 -39 12 -10 17 -15 9 -11 -9 5 -12 3 -7 -5 4 -6 12 -9 17 -6 5 4
16 -1 25 -9 8 -9 22 -16 30 -16 8 0 14 -4 14 -8 0 -4 15 -16 33 -27 17 -10 37
-24 44 -29 32 -28 43 -36 48 -36 6 0 16 -8 54 -40 10 -8 26 -20 37 -27 10 -6
18 -16 17 -22 -2 -6 4 -8 12 -5 8 4 17 -1 21 -10 3 -9 10 -16 15 -16 5 0 18
-8 30 -17 11 -10 29 -25 39 -33 9 -8 36 -31 60 -50 23 -19 63 -54 88 -77 43
-40 62 -51 62 -38 0 15 -310 306 -380 357 -22 17 -40 34 -40 39 0 5 -4 9 -10
9 -5 0 -20 9 -32 19 -43 37 -66 56 -90 73 -94 69 -134 98 -143 106 -5 4 -28
19 -50 32 -22 13 -42 27 -45 31 -3 4 -19 15 -37 25 -17 11 -77 46 -133 79 -56
33 -120 71 -143 84 -99 55 -498 251 -512 251 -3 0 -36 15 -75 34 -38 19 -70
32 -70 29 0 -3 -6 -1 -12 4 -31 24 -574 190 -683 208 -11 2 -29 6 -40 8 -95
23 -252 52 -335 63 -19 2 -53 7 -75 10 -76 12 -201 23 -329 30 -106 6 -534 13
-538 8z"/>
<path d="M5055 9880 c3 -5 8 -10 11 -10 2 0 4 5 4 10 0 6 -5 10 -11 10 -5 0
-7 -4 -4 -10z"/>
<path d="M5093 9865 c0 -8 4 -12 9 -9 5 3 6 10 3 15 -9 13 -12 11 -12 -6z"/>
<path d="M5535 9871 c-3 -5 -2 -12 3 -15 5 -3 9 1 9 9 0 17 -3 19 -12 6z"/>
<path d="M5575 9871 c-3 -5 -2 -12 3 -15 5 -3 9 1 9 9 0 17 -3 19 -12 6z"/>
<path d="M5613 9865 c0 -8 4 -12 9 -9 5 3 6 10 3 15 -9 13 -12 11 -12 -6z"/>
<path d="M5653 9865 c0 -8 4 -12 9 -9 5 3 6 10 3 15 -9 13 -12 11 -12 -6z"/>
<path d="M5813 9865 c0 -8 4 -12 9 -9 5 3 6 10 3 15 -9 13 -12 11 -12 -6z"/>
<path d="M4947 9859 c7 -7 15 -10 18 -7 3 3 -2 9 -12 12 -14 6 -15 5 -6 -5z"/>
<path d="M5255 9860 c3 -5 8 -10 11 -10 2 0 4 5 4 10 0 6 -5 10 -11 10 -5 0
-7 -4 -4 -10z"/>
<path d="M5330 9859 c0 -5 5 -7 10 -4 6 3 10 8 10 11 0 2 -4 4 -10 4 -5 0 -10
-5 -10 -11z"/>
<path d="M6223 9844 c9 -11 15 -24 12 -27 -3 -4 -2 -5 2 -2 4 3 8 13 9 21 1 9
0 13 -3 10 -4 -3 -13 0 -22 6 -12 10 -12 7 2 -8z"/>
<path d="M4893 9833 c0 -9 4 -10 14 -2 7 6 13 12 13 14 0 1 -6 2 -13 2 -8 0
-14 -6 -14 -14z"/>
<path d="M5356 9842 c-3 -5 1 -9 9 -9 8 0 12 4 9 9 -3 4 -7 8 -9 8 -2 0 -6 -4
-9 -8z"/>
<path d="M5436 9842 c-3 -5 1 -9 9 -9 8 0 12 4 9 9 -3 4 -7 8 -9 8 -2 0 -6 -4
-9 -8z"/>
<path d="M5896 9838 c3 -5 10 -6 15 -3 13 9 11 12 -6 12 -8 0 -12 -4 -9 -9z"/>
<path d="M6126 9838 c3 -5 10 -6 15 -3 13 9 11 12 -6 12 -8 0 -12 -4 -9 -9z"/>
<path d="M6079 9813 c-13 -17 -13 -17 6 -3 11 8 22 16 24 17 2 2 0 3 -6 3 -6
0 -17 -8 -24 -17z"/>
<path d="M4655 9809 c-4 -6 -5 -12 -2 -15 2 -3 7 2 10 11 7 17 1 20 -8 4z"/>
<path d="M6337 9813 c-10 -9 -9 -23 1 -23 5 0 9 7 9 15 0 17 -1 18 -10 8z"/>
<path d="M6430 9816 c0 -2 8 -10 18 -17 15 -13 16 -12 3 4 -13 16 -21 21 -21
13z"/>
<path d="M4736 9798 c3 -5 10 -6 15 -3 13 9 11 12 -6 12 -8 0 -12 -4 -9 -9z"/>
<path d="M4615 9780 c3 -5 8 -10 11 -10 2 0 4 5 4 10 0 6 -5 10 -11 10 -5 0
-7 -4 -4 -10z"/>
<path d="M6410 9779 c0 -5 5 -7 10 -4 6 3 10 8 10 11 0 2 -4 4 -10 4 -5 0 -10
-5 -10 -11z"/>
<path d="M4416 9758 c3 -5 10 -6 15 -3 13 9 11 12 -6 12 -8 0 -12 -4 -9 -9z"/>
<path d="M6673 9745 c0 -8 4 -12 9 -9 5 3 6 10 3 15 -9 13 -12 11 -12 -6z"/>
<path d="M4221 9716 c-9 -11 -9 -16 0 -22 7 -4 9 -3 5 4 -3 6 2 15 11 21 10 6
13 11 7 11 -6 0 -17 -6 -23 -14z"/>
<path d="M6735 9711 c-3 -5 -2 -12 3 -15 5 -3 9 1 9 9 0 17 -3 19 -12 6z"/>
<path d="M4276 9702 c-3 -5 1 -9 9 -9 8 0 12 4 9 9 -3 4 -7 8 -9 8 -2 0 -6 -4
-9 -8z"/>
<path d="M6906 9682 c-2 -4 4 -8 14 -8 10 0 16 4 14 8 -3 4 -9 8 -14 8 -5 0
-11 -4 -14 -8z"/>
<path d="M7010 9660 c0 -5 5 -10 11 -10 5 0 7 5 4 10 -3 6 -8 10 -11 10 -2 0
-4 -4 -4 -10z"/>
<path d="M4110 9656 c0 -2 8 -10 18 -17 15 -13 16 -12 3 4 -13 16 -21 21 -21
13z"/>
<path d="M4041 9636 c-9 -11 -9 -16 1 -22 7 -4 10 -4 6 1 -4 4 -3 14 3 22 6 7
9 13 6 13 -2 0 -10 -6 -16 -14z"/>
<path d="M7057 9635 c-4 -8 -3 -16 1 -19 4 -3 9 4 9 15 2 23 -3 25 -10 4z"/>
<path d="M7010 9619 c0 -5 5 -7 10 -4 6 3 10 8 10 11 0 2 -4 4 -10 4 -5 0 -10
-5 -10 -11z"/>
<path d="M3895 9611 c-3 -5 -2 -12 3 -15 5 -3 9 1 9 9 0 17 -3 19 -12 6z"/>
<path d="M3915 9580 c-3 -5 -1 -10 4 -10 6 0 11 5 11 10 0 6 -2 10 -4 10 -3 0
-8 -4 -11 -10z"/>
<path d="M3816 9567 c3 -10 9 -15 12 -12 3 3 0 11 -7 18 -10 9 -11 8 -5 -6z"/>
<path d="M3697 9515 c-4 -8 -3 -16 1 -19 4 -3 9 4 9 15 2 23 -3 25 -10 4z"/>
<path d="M7393 9505 c0 -8 4 -12 9 -9 5 3 6 10 3 15 -9 13 -12 11 -12 -6z"/>
<path d="M7307 9479 c7 -7 15 -10 18 -7 3 3 -2 9 -12 12 -14 6 -15 5 -6 -5z"/>
<path d="M3433 9405 c0 -8 4 -12 9 -9 5 3 6 10 3 15 -9 13 -12 11 -12 -6z"/>
<path d="M3445 9360 c-3 -6 1 -7 9 -4 18 7 21 14 7 14 -6 0 -13 -4 -16 -10z"/>
<path d="M7596 9353 c-6 -14 -5 -15 5 -6 7 7 10 15 7 18 -3 3 -9 -2 -12 -12z"/>
<path d="M7665 9360 c-3 -6 1 -7 9 -4 18 7 21 14 7 14 -6 0 -13 -4 -16 -10z"/>
<path d="M3273 9333 c0 -9 4 -10 14 -2 7 6 13 12 13 14 0 1 -6 2 -13 2 -8 0
-14 -6 -14 -14z"/>
<path d="M3213 9305 c0 -8 4 -12 9 -9 5 3 6 10 3 15 -9 13 -12 11 -12 -6z"/>
<path d="M3106 9238 c3 -4 9 -8 15 -8 5 0 9 4 9 8 0 5 -7 9 -15 9 -8 0 -12 -4
-9 -9z"/>
<path d="M3186 9242 c-3 -5 1 -9 9 -9 8 0 12 4 9 9 -3 4 -7 8 -9 8 -2 0 -6 -4
-9 -8z"/>
<path d="M8053 9135 c0 -8 4 -12 9 -9 5 3 6 10 3 15 -9 13 -12 11 -12 -6z"/>
<path d="M2855 9060 c3 -5 8 -10 11 -10 2 0 4 5 4 10 0 6 -5 10 -11 10 -5 0
-7 -4 -4 -10z"/>
<path d="M8153 9055 c0 -8 4 -12 9 -9 5 3 6 10 3 15 -9 13 -12 11 -12 -6z"/>
<path d="M2696 8967 c3 -10 9 -15 12 -12 3 3 0 11 -7 18 -10 9 -11 8 -5 -6z"/>
<path d="M4560 8903 c-132 -7 -328 -55 -450 -110 -54 -24 -192 -111 -210 -132
-3 -4 -23 -20 -45 -36 -67 -50 -177 -169 -235 -255 -30 -44 -61 -87 -67 -95
-7 -7 -13 -18 -13 -22 0 -5 -9 -19 -20 -31 -12 -12 -18 -22 -16 -22 3 0 -7
-21 -22 -47 -15 -27 -41 -77 -57 -113 -17 -36 -34 -68 -40 -72 -5 -4 -6 -8 -1
-8 5 0 3 -6 -3 -14 -6 -7 -20 -37 -31 -67 -10 -30 -31 -85 -45 -124 -14 -38
-28 -81 -31 -94 -3 -13 -9 -32 -15 -43 -5 -10 -7 -23 -4 -28 3 -6 2 -10 -2
-10 -5 0 -10 -14 -11 -32 -2 -18 -6 -35 -10 -38 -4 -3 -8 -12 -9 -20 -1 -8 -5
-26 -8 -40 -4 -14 -7 -33 -7 -42 1 -10 -4 -18 -10 -18 -6 0 -9 -3 -6 -6 3 -3
-1 -29 -9 -57 -8 -29 -16 -59 -18 -67 -2 -8 -4 -17 -5 -20 -1 -3 -1 -17 0 -32
1 -14 -3 -29 -9 -32 -6 -4 -8 -13 -5 -21 3 -8 2 -20 -2 -27 -4 -7 -9 -30 -10
-53 -3 -64 -3 -67 -16 -59 -10 5 -10 4 -1 -6 7 -8 8 -22 3 -41 -10 -36 -10
-32 -10 -70 0 -19 -4 -28 -11 -23 -8 5 -8 1 0 -13 6 -11 7 -23 4 -27 -4 -4 -8
-17 -9 -29 -1 -12 -5 -65 -9 -117 -4 -52 -7 -102 -8 -110 0 -8 -5 -21 -11 -29
-8 -11 -8 -13 1 -8 9 6 11 -3 7 -35 -3 -24 -6 -67 -6 -95 0 -29 -4 -55 -9 -59
-6 -4 -6 -10 0 -18 11 -13 8 -47 -5 -68 -4 -6 -3 -9 2 -5 5 3 7 -36 4 -95 -3
-55 -3 -102 -1 -104 9 -9 6 -154 -4 -154 -5 0 -4 -4 4 -9 12 -8 12 -12 2 -24
-7 -9 -8 -18 -2 -21 5 -3 10 -32 11 -64 0 -31 3 -91 6 -132 3 -41 6 -101 7
-132 1 -32 5 -58 8 -58 3 0 5 -18 5 -40 -1 -22 2 -40 6 -40 9 0 6 -30 -6 -48
-5 -8 -3 -12 6 -10 7 2 12 -3 10 -10 -1 -7 2 -22 8 -32 8 -15 8 -20 -2 -20
-10 0 -10 -2 1 -9 8 -6 12 -20 9 -39 -2 -17 -1 -29 4 -26 7 4 13 -25 9 -48 0
-4 4 -19 9 -33 6 -14 6 -24 1 -21 -5 3 -3 -11 4 -32 8 -21 16 -53 18 -72 3
-19 6 -35 7 -35 2 0 5 -18 13 -75 2 -14 7 -32 10 -40 7 -18 21 -112 19 -122
-1 -5 2 -8 7 -8 4 0 7 -11 6 -25 -2 -14 1 -25 6 -25 6 0 8 -4 4 -9 -3 -5 -1
-12 4 -15 5 -3 8 -19 7 -35 -1 -17 2 -28 6 -25 4 3 8 -4 8 -15 0 -12 5 -21 11
-21 8 0 8 -4 0 -14 -8 -9 -8 -15 -2 -18 6 -1 12 -14 15 -28 2 -14 5 -26 7 -27
1 -2 2 -6 3 -10 1 -5 4 -12 7 -18 4 -5 5 -20 4 -32 -1 -12 2 -20 7 -17 4 3 8
-5 8 -18 0 -13 6 -30 13 -37 10 -11 9 -12 -3 -5 -12 6 -11 2 3 -19 9 -15 15
-27 12 -27 -3 0 1 -16 9 -35 8 -19 12 -35 9 -35 -3 0 0 -6 6 -14 6 -8 11 -18
10 -22 -1 -5 0 -12 1 -16 1 -5 3 -11 5 -15 5 -18 17 -49 26 -66 5 -10 7 -22 4
-27 -4 -6 -1 -10 5 -10 6 0 9 -4 5 -9 -3 -5 -1 -12 5 -16 5 -3 10 -17 10 -31
0 -13 5 -24 10 -24 6 0 10 -11 10 -25 0 -14 5 -25 10 -25 6 0 10 -11 10 -25 0
-14 4 -25 9 -25 8 0 25 -56 22 -72 0 -5 4 -8 10 -8 5 0 7 -4 4 -10 -3 -5 -1
-10 4 -10 6 0 11 -6 11 -13 0 -7 9 -32 20 -55 11 -22 20 -46 20 -52 0 -5 5
-10 11 -10 8 0 7 -6 -2 -17 -8 -9 -9 -14 -4 -11 12 7 29 -11 33 -36 2 -12 -1
-16 -9 -10 -8 4 -10 3 -5 -5 4 -6 11 -9 15 -7 9 6 53 -82 46 -94 -3 -4 2 -11
11 -14 10 -4 14 -14 11 -26 -3 -11 -2 -18 1 -16 13 8 34 -28 35 -61 0 -7 4
-10 8 -8 9 6 21 -24 13 -36 -3 -5 2 -9 11 -9 9 0 13 -4 10 -10 -3 -5 -1 -10 5
-10 6 0 9 -4 5 -9 -3 -5 2 -17 11 -25 9 -9 13 -23 10 -32 -3 -8 -2 -13 3 -9
10 6 41 -49 41 -72 0 -8 5 -11 10 -8 6 3 10 -3 10 -14 0 -12 5 -21 11 -21 5 0
7 -5 4 -10 -4 -6 -11 -7 -17 -4 -7 4 -8 2 -4 -5 4 -6 11 -9 16 -6 16 10 22
-16 8 -33 -12 -15 -11 -16 5 -3 15 12 21 9 18 -12 0 -4 2 -7 7 -7 4 0 14 -15
21 -32 8 -18 21 -39 28 -47 8 -7 11 -21 8 -29 -3 -9 -3 -13 1 -10 4 4 15 -4
26 -18 17 -21 18 -27 6 -42 -11 -15 -11 -15 2 -6 11 9 18 9 27 -1 6 -7 9 -16
6 -19 -4 -3 -1 -6 6 -6 8 0 11 -8 8 -20 -3 -10 -2 -18 2 -17 3 1 8 -2 10 -8 2
-5 12 -16 22 -23 11 -7 19 -20 19 -28 0 -8 5 -14 10 -14 6 0 10 -7 10 -15 0
-8 5 -15 10 -15 6 0 10 -7 10 -15 0 -8 5 -15 10 -15 6 0 10 -7 10 -15 0 -8 5
-15 10 -15 6 0 10 -7 10 -16 0 -9 -5 -12 -12 -8 -7 4 -8 3 -4 -4 4 -6 13 -9
20 -6 8 3 17 0 22 -7 5 -8 3 -10 -7 -5 -8 4 -5 0 6 -9 11 -9 20 -19 20 -23 0
-4 10 -18 22 -31 21 -23 21 -25 5 -38 -16 -12 -16 -13 1 -7 14 5 26 -2 43 -22
13 -16 23 -32 24 -36 0 -5 8 -16 18 -26 36 -38 62 -72 54 -72 -4 0 1 -5 11
-11 9 -5 17 -17 17 -24 0 -8 5 -15 10 -15 6 0 14 -8 17 -17 4 -9 14 -24 22
-33 9 -9 27 -31 41 -50 14 -18 35 -43 46 -55 12 -12 25 -31 28 -43 4 -12 14
-22 22 -22 8 0 14 -5 14 -10 0 -6 12 -22 26 -35 15 -14 24 -25 21 -25 -3 0 19
-25 50 -56 31 -32 52 -62 49 -70 -3 -7 0 -16 6 -20 7 -4 8 -3 4 4 -4 7 -3 12
2 12 14 0 33 -26 25 -33 -3 -4 1 -7 11 -7 9 0 14 -4 11 -10 -3 -5 1 -10 10
-10 9 0 13 -4 10 -10 -3 -5 1 -10 10 -10 9 0 14 -4 11 -8 -3 -5 6 -16 19 -26
14 -10 22 -23 19 -28 -3 -4 0 -7 8 -6 7 2 12 -2 11 -9 -2 -6 6 -15 17 -18 11
-4 20 -11 20 -17 0 -5 11 -19 25 -30 14 -11 22 -24 19 -30 -4 -6 -3 -8 3 -5
13 8 57 -38 49 -51 -3 -5 2 -9 12 -8 9 0 16 -5 14 -11 -1 -7 4 -13 11 -13 14
0 47 -35 47 -51 0 -5 4 -7 10 -4 6 3 10 -1 10 -9 0 -8 5 -18 12 -22 7 -5 8 -3
3 7 -8 12 -6 12 8 0 9 -7 17 -20 17 -27 0 -8 7 -14 16 -14 10 0 14 -6 11 -15
-4 -8 -1 -17 5 -21 7 -5 8 -2 3 7 -8 12 -6 12 8 0 9 -7 14 -18 10 -24 -3 -5
-1 -7 4 -4 6 4 19 -5 29 -19 11 -15 31 -39 47 -54 15 -16 27 -31 27 -34 0 -3
13 -19 30 -34 28 -27 28 -29 12 -47 -16 -18 -16 -18 0 -6 18 13 38 8 38 -11 0
-6 8 -18 18 -27 9 -9 33 -38 52 -66 19 -27 38 -52 42 -53 4 -2 8 -10 8 -18 0
-8 5 -14 10 -14 6 0 20 -21 31 -47 11 -26 24 -50 29 -53 5 -3 10 -12 12 -20 2
-8 8 -20 15 -27 6 -7 19 -34 29 -60 22 -59 21 -58 36 -45 8 6 13 28 12 48 -1
21 2 49 7 63 l10 25 13 -24 c9 -18 10 -29 2 -39 -7 -10 -7 -13 -1 -9 15 9 28
-2 44 -37 12 -27 14 -28 21 -10 4 11 6 23 3 28 -2 4 0 7 5 7 12 0 12 6 16 165
2 81 -2 176 -9 225 -7 47 -11 88 -8 92 2 5 -1 8 -7 8 -6 0 -10 6 -9 13 5 27
-47 186 -92 284 -16 36 -31 70 -32 76 -1 7 -5 14 -8 17 -3 3 -27 46 -53 95
-26 50 -57 106 -69 126 -51 84 -90 146 -115 186 -35 55 -164 268 -190 314 -11
20 -26 47 -34 60 -7 13 -17 27 -21 30 -5 3 -8 8 -7 10 3 7 -23 59 -30 59 -4 0
-13 18 -20 40 -7 22 -17 40 -22 40 -4 0 -7 3 -6 7 2 5 -11 37 -29 73 -31 65
-45 99 -47 112 -1 4 -7 13 -13 19 -7 7 -13 18 -13 24 0 6 -9 29 -20 52 -22 46
-47 111 -63 166 -6 20 -14 37 -18 37 -5 0 -6 9 -4 20 2 11 0 20 -4 20 -5 0
-14 21 -21 48 -7 26 -16 52 -19 57 -3 6 -6 12 -6 15 -1 3 -6 23 -13 45 -22 68
-33 109 -35 125 -2 8 -6 21 -10 27 -5 7 -6 17 -2 22 3 5 1 12 -4 15 -5 4 -8
14 -7 24 2 9 0 19 -4 22 -7 5 -13 30 -26 115 -3 17 -8 37 -11 45 -3 8 -7 33
-10 55 -3 22 -8 56 -13 76 -4 21 -3 44 3 54 6 12 6 16 0 12 -10 -6 -12 14 -17
130 0 24 -5 43 -10 43 -5 0 -3 7 4 15 7 8 8 15 3 15 -12 0 -11 60 1 79 6 9 6
12 -2 7 -15 -9 -14 94 1 113 9 11 9 13 0 8 -15 -9 -13 64 2 75 6 5 5 8 -3 8
-7 0 -10 5 -6 11 4 6 8 42 10 79 3 80 6 93 19 102 6 5 6 8 -2 8 -6 0 -9 9 -6
20 3 11 9 20 13 20 5 0 6 8 4 17 -3 10 2 47 11 83 9 36 19 77 22 92 3 16 10
25 16 21 6 -3 7 -1 3 6 -11 17 3 53 17 44 8 -5 8 -2 0 9 -7 8 -10 17 -7 20 2
3 7 18 10 34 3 16 9 33 15 40 5 6 6 14 2 17 -3 4 -1 7 5 7 7 0 12 6 12 14 0 7
7 19 15 26 9 7 13 15 11 17 -5 5 21 39 48 62 10 9 25 22 33 30 31 29 101 61
106 48 4 -9 7 -9 18 1 19 18 32 15 25 -5 -6 -17 -5 -17 8 0 13 16 62 25 52 9
-2 -4 8 -7 22 -6 36 2 53 -6 45 -20 -4 -6 1 -5 10 3 11 9 17 10 17 2 0 -6 9
-11 20 -11 11 0 20 -4 20 -10 0 -5 5 -10 11 -10 18 0 112 -98 105 -109 -4 -7
-1 -8 8 -5 10 4 16 1 16 -9 0 -8 7 -18 16 -21 8 -3 12 -10 9 -16 -3 -6 1 -13
10 -16 13 -6 14 -8 3 -15 -10 -7 -9 -9 5 -9 9 0 17 -7 17 -15 0 -9 7 -27 16
-40 9 -13 13 -28 10 -34 -3 -5 1 -12 10 -15 9 -4 14 -9 11 -13 -4 -3 -2 -12 3
-18 6 -7 12 -26 13 -43 1 -17 5 -30 9 -29 3 1 6 -2 6 -8 0 -5 -4 -9 -10 -7 -5
1 -7 -2 -3 -7 3 -6 11 -8 19 -5 7 3 13 -2 13 -10 0 -16 19 -84 34 -123 6 -16
5 -23 -4 -23 -8 0 -9 -3 -1 -8 20 -13 45 -70 25 -58 -5 4 -1 -11 9 -31 14 -30
16 -41 7 -52 -9 -12 -9 -13 1 -7 12 7 13 5 16 -44 1 -14 5 -34 9 -45 3 -11 9
-36 12 -55 3 -19 9 -44 12 -55 3 -11 7 -36 9 -55 1 -19 3 -35 4 -35 1 0 3 -10
6 -23 3 -17 1 -21 -8 -16 -10 6 -10 5 -1 -7 7 -9 14 -46 16 -82 2 -37 7 -70
10 -74 4 -3 2 -12 -4 -20 -8 -9 -8 -17 -1 -26 6 -7 13 -61 15 -120 2 -59 7
-110 11 -114 10 -11 7 -25 -5 -17 -7 4 -7 -1 1 -16 7 -12 10 -33 7 -46 -2 -13
-1 -24 3 -24 4 0 6 -10 6 -23 -1 -12 2 -28 7 -34 6 -9 5 -13 -4 -13 -10 0 -11
-3 -3 -8 7 -4 14 -18 15 -32 2 -14 7 -27 11 -30 4 -3 9 -16 11 -28 2 -12 6
-25 10 -28 4 -4 7 -16 7 -26 0 -10 6 -18 13 -18 8 0 7 -4 -3 -10 -13 -8 -12
-10 4 -10 12 0 16 -5 12 -15 -3 -8 -1 -15 4 -15 6 0 10 -7 10 -15 0 -8 4 -15
8 -15 5 0 14 -11 20 -24 12 -27 34 -56 72 -95 13 -14 23 -30 22 -35 -2 -5 4
-6 12 -3 17 7 39 -16 28 -28 -4 -5 -1 -5 6 -1 20 12 54 -4 47 -21 -4 -12 -2
-13 8 -5 7 6 26 9 43 6 47 -9 133 -10 128 -2 -3 5 4 8 16 8 12 0 19 -4 15 -9
-3 -5 0 -13 6 -17 7 -4 9 -3 6 2 -3 6 -2 16 3 23 10 17 33 4 24 -12 -4 -7 -3
-8 2 -4 5 5 9 14 9 20 0 7 10 12 22 11 12 0 21 4 20 10 -1 6 9 10 23 8 17 -1
21 1 12 6 -10 7 -7 13 13 26 14 9 31 14 37 10 7 -5 8 -3 3 6 -6 10 -4 12 8 7
9 -3 19 -1 23 5 5 7 2 8 -6 3 -8 -5 -11 -3 -9 4 3 7 7 11 11 9 3 -2 16 10 28
25 13 16 28 26 37 23 8 -3 12 -2 9 2 -6 10 14 35 47 57 15 10 25 20 23 22 -3
3 11 21 30 41 19 19 34 39 34 45 0 5 7 7 14 4 9 -4 13 -1 10 6 -2 7 7 25 21
41 13 16 39 51 56 77 17 27 38 49 48 49 13 0 13 2 3 9 -11 7 -9 13 10 31 12
13 16 20 8 16 -8 -4 -4 2 9 13 14 13 18 21 10 21 -11 0 -11 2 1 10 8 5 15 14
15 20 0 6 6 14 13 19 8 5 13 12 13 17 -1 5 3 9 8 9 5 0 13 4 18 9 4 5 3 6 -4
2 -6 -3 -14 -2 -18 4 -3 5 -2 10 3 10 5 0 17 18 27 40 10 22 22 37 28 33 6 -3
7 -1 3 5 -8 13 14 63 25 57 4 -3 11 0 15 6 4 8 3 9 -4 5 -17 -10 -15 19 1 33
8 6 17 8 21 4 4 -4 4 0 1 9 -4 9 -1 27 6 40 7 13 12 26 11 31 -1 4 2 7 7 7 11
0 35 59 32 79 -2 9 3 12 15 7 13 -5 15 -4 6 7 -16 19 -3 30 17 14 14 -11 14
-10 3 5 -12 15 -11 23 4 58 10 22 22 40 27 40 4 0 6 4 3 9 -3 4 3 26 13 47 11
21 17 42 14 46 -2 5 1 8 7 8 6 0 8 5 5 10 -3 6 -2 10 3 10 5 0 12 14 16 31 5
28 8 30 23 18 16 -13 17 -12 5 3 -8 10 -10 23 -6 30 5 7 9 19 11 27 1 8 7 17
13 21 7 4 11 10 11 14 -3 20 0 26 11 20 6 -4 8 -3 5 3 -8 13 12 75 22 68 4 -2
7 6 7 18 -1 13 4 21 12 19 8 -1 11 2 7 9 -4 6 1 28 10 50 15 33 20 37 34 27
12 -9 11 -7 -2 8 -16 19 -16 23 -2 34 8 7 15 19 15 26 0 8 5 14 11 14 5 0 8 4
5 9 -3 5 1 25 9 45 8 20 15 38 15 41 0 3 9 21 20 41 11 19 18 39 15 44 -3 4
-1 10 5 12 6 2 12 12 14 23 7 35 27 79 44 99 9 11 11 16 5 12 -15 -8 -18 10
-4 19 5 3 13 19 16 36 6 25 11 30 28 25 22 -5 22 -5 2 10 -17 13 -18 16 -5 24
8 5 11 10 6 10 -5 0 -3 6 3 13 6 8 8 17 4 20 -3 4 -1 7 5 7 6 0 9 7 6 15 -4 8
-1 15 6 15 6 0 9 4 5 9 -3 5 2 17 11 25 8 9 11 16 5 16 -5 0 -4 12 5 28 7 15
14 33 14 40 0 7 4 10 10 7 6 -3 7 1 4 10 -4 8 -2 21 4 28 6 6 10 14 10 17 -1
21 27 88 35 83 6 -4 8 0 4 11 -4 10 -4 23 0 29 4 7 9 21 10 32 2 10 8 22 14
26 6 3 10 9 10 13 -4 29 1 38 17 32 15 -5 15 -5 1 7 -16 12 -15 17 10 65 7 13
10 26 7 29 -3 3 4 23 15 44 11 22 17 39 13 39 -4 0 -1 7 6 14 6 8 14 30 17 48
3 18 10 39 16 47 10 12 9 13 -2 6 -8 -5 -5 6 8 23 14 21 18 32 10 32 -10 0
-10 3 -1 12 7 7 12 20 12 31 0 12 4 16 13 11 9 -5 9 -4 1 5 -9 9 -7 25 7 62
10 27 16 49 12 49 -4 0 -2 5 4 11 6 6 9 17 7 24 -3 7 -1 16 5 20 6 3 11 16 11
28 0 12 7 30 15 40 7 11 11 25 9 32 -3 7 -1 16 5 19 6 4 8 13 4 21 -3 8 -1 15
4 15 5 0 9 10 8 23 -1 12 2 28 8 35 5 7 7 15 3 19 -3 3 1 17 10 31 9 13 11 21
5 18 -8 -5 -8 0 -2 16 15 39 35 113 32 122 -1 5 1 16 5 25 4 9 8 30 10 46 2
17 8 50 14 75 12 53 17 80 26 135 3 22 8 47 9 55 2 8 4 21 4 28 1 7 5 11 9 8
5 -3 7 8 4 23 -2 16 1 32 8 36 8 5 8 10 -1 21 -8 10 -8 14 -1 14 6 0 9 7 6 15
-4 8 -2 15 2 15 5 0 9 15 8 33 0 17 4 38 9 44 5 7 7 19 4 27 -3 8 -3 17 1 20
3 4 7 37 9 74 2 37 5 92 7 122 2 30 4 63 5 73 1 12 5 16 14 11 9 -6 9 -5 -1 8
-7 9 -13 55 -16 115 -1 55 -6 104 -9 110 -3 5 -6 22 -6 39 -1 29 -7 77 -11 82
-2 1 -4 7 -5 12 -1 6 -4 13 -5 18 -1 4 -3 12 -4 17 -7 42 -19 75 -28 75 -6 0
-9 3 -5 6 16 16 -87 226 -146 299 -65 79 -161 169 -223 210 -51 33 -153 84
-177 87 -12 2 -27 6 -32 10 -33 21 -259 29 -381 15 -76 -9 -197 -38 -213 -51
-8 -6 -16 -10 -18 -8 -2 2 -34 -11 -71 -29 -106 -49 -234 -109 -267 -124 -16
-7 -48 -22 -70 -31 -22 -10 -43 -17 -47 -16 -5 1 -8 -3 -8 -9 0 -5 -4 -8 -9
-4 -5 3 -12 1 -15 -4 -3 -5 -16 -11 -29 -15 -13 -3 -50 -18 -83 -33 -32 -15
-61 -28 -64 -28 -3 -1 -31 -13 -62 -28 -52 -25 -106 -48 -118 -52 -3 -1 -29
-13 -59 -28 -29 -14 -58 -24 -64 -20 -6 3 -7 1 -3 -5 4 -7 2 -13 -3 -13 -20
-3 -26 -5 -61 -21 -30 -15 -104 -39 -135 -44 -5 -1 -14 -3 -20 -4 -5 -1 -13
-2 -17 -1 -5 0 -8 -4 -8 -10 0 -6 -7 -9 -15 -6 -8 4 -17 2 -20 -2 -4 -8 -51
-20 -95 -26 -8 -1 -30 -5 -48 -9 -18 -4 -52 -10 -75 -12 -23 -3 -51 -6 -62 -8
-11 -2 -26 2 -34 8 -11 8 -13 8 -8 0 5 -8 -14 -12 -66 -13 -85 -1 -179 17
-170 33 4 6 0 5 -9 -1 -8 -7 -18 -9 -22 -5 -4 4 -11 7 -14 8 -29 2 -71 17 -67
23 2 5 -7 7 -20 5 -14 -1 -25 1 -25 6 0 4 -12 11 -27 15 -16 3 -36 14 -47 23
-10 9 -20 16 -22 14 -3 -1 -12 2 -22 7 -13 9 -10 10 16 7 17 -1 35 -6 39 -9 3
-4 21 -7 39 -7 18 0 35 -6 37 -12 4 -10 6 -10 6 0 1 6 6 12 12 12 5 0 7 -4 4
-10 -4 -7 3 -7 19 0 14 5 26 6 26 1 0 -5 7 -12 16 -15 8 -3 13 -2 10 3 -3 5 3
11 14 14 11 3 20 1 20 -5 0 -5 9 -7 20 -3 16 5 19 3 14 -12 -5 -13 -2 -12 10
5 19 25 38 21 29 -6 -5 -14 -2 -13 11 3 13 15 19 17 23 6 4 -9 8 -10 12 -2 4
6 26 12 49 15 29 3 40 0 35 -8 -5 -8 -3 -8 8 0 13 11 43 17 153 30 22 3 48 10
57 15 12 6 19 5 22 -4 3 -6 6 -3 6 7 1 11 4 16 7 13 4 -3 15 -2 24 3 10 5 32
11 49 12 17 1 31 6 31 10 0 7 73 30 98 31 6 0 12 5 12 10 0 6 3 7 7 4 3 -4 12
-2 20 4 7 6 13 9 13 6 0 -3 17 3 37 13 28 13 40 15 45 7 5 -8 8 -6 8 5 0 10 3
17 8 16 4 0 25 7 47 17 22 10 44 18 48 17 4 -1 10 5 13 13 3 8 10 13 14 10 5
-3 11 -1 15 5 3 5 15 10 26 10 10 0 19 4 19 9 0 5 15 15 33 22 17 7 38 19 44
25 7 7 28 22 48 34 19 12 35 23 35 25 0 2 -17 1 -39 -2 -22 -3 -41 -1 -45 5
-4 8 -15 8 -31 2 -32 -12 -135 -4 -189 14 -73 25 -208 86 -301 135 -49 26
-142 75 -205 109 -158 84 -335 155 -415 167 -11 2 -40 6 -65 10 -25 3 -56 9
-70 12 -27 6 -279 10 -370 6z"/>
<path d="M2496 8781 c-3 -5 2 -15 12 -22 15 -12 16 -12 5 2 -7 9 -10 19 -6 22
3 4 4 7 0 7 -3 0 -8 -4 -11 -9z"/>
<path d="M2390 8726 c0 -2 7 -7 16 -10 8 -3 12 -2 9 4 -6 10 -25 14 -25 6z"/>
<path d="M9272 8677 c-2 -18 -4 -42 -5 -54 -1 -13 -5 -23 -8 -23 -3 0 -5 -10
-4 -22 1 -13 -2 -28 -6 -34 -5 -6 -11 -21 -13 -35 -3 -13 -5 -25 -7 -26 -1 -2
-2 -11 -3 -20 -2 -30 -58 -153 -69 -153 -6 0 -7 -3 -4 -7 8 -7 -35 -67 -78
-106 -70 -65 -200 -124 -310 -141 -22 -4 -53 -9 -70 -13 -16 -3 -38 -5 -47 -5
-20 1 -25 -18 -5 -19 6 0 23 -2 37 -5 14 -2 39 -5 57 -7 18 -2 40 -10 50 -18
10 -9 14 -9 9 -2 -8 14 19 8 40 -8 6 -5 13 -6 16 -3 11 10 158 -52 158 -67 0
-6 4 -8 9 -5 12 8 52 -29 43 -39 -4 -5 -1 -5 6 -1 14 8 67 -45 78 -76 3 -10
10 -18 15 -18 5 0 9 -9 9 -21 0 -11 5 -17 10 -14 9 5 15 -15 11 -37 0 -5 4 -8
10 -8 6 0 8 -7 5 -15 -3 -9 1 -18 8 -21 8 -3 13 -13 11 -22 -1 -9 0 -21 4 -27
3 -5 7 -17 9 -25 1 -8 4 -20 5 -27 2 -7 6 -15 9 -19 4 -3 4 -12 2 -19 -3 -7
-1 -22 5 -33 7 -13 7 -22 0 -29 -8 -8 -7 -13 0 -17 6 -4 11 -19 11 -33 0 -15
3 -23 7 -19 6 6 8 17 17 106 2 19 5 37 6 40 1 3 1 13 0 24 -1 10 3 16 8 12 5
-3 8 6 6 19 -1 14 1 25 4 25 4 0 8 15 9 32 2 18 7 34 13 36 6 2 8 7 5 12 -3 5
2 15 10 24 9 8 15 19 15 23 -3 27 10 45 29 40 12 -3 24 0 28 5 3 6 1 8 -5 4
-6 -3 -14 -2 -17 4 -7 12 62 85 106 114 15 9 35 14 45 10 16 -5 16 -4 4 5 -13
10 -8 15 13 12 4 0 7 3 7 9 0 6 9 10 19 10 11 0 23 5 26 11 4 6 14 8 22 5 8
-3 12 -2 9 3 -5 8 7 12 79 25 11 2 20 4 20 5 0 5 127 24 167 25 9 0 15 4 12 8
-2 3 -12 6 -22 6 -63 -3 -246 44 -328 83 -35 17 -82 48 -106 69 -43 37 -116
130 -102 130 3 0 1 7 -6 15 -6 8 -8 20 -4 26 4 7 3 9 -3 6 -15 -9 -51 126 -68
258 -9 65 -11 74 -16 79 -2 3 -6 -10 -7 -27z"/>
<path d="M2280 8639 c0 -5 5 -7 10 -4 6 3 10 8 10 11 0 2 -4 4 -10 4 -5 0 -10
-5 -10 -11z"/>
<path d="M8755 8640 c-3 -5 1 -10 9 -10 9 0 16 -4 16 -8 0 -4 15 -16 33 -26
l32 -19 -37 36 c-40 40 -44 42 -53 27z"/>
<path d="M8835 8560 c3 -5 8 -10 11 -10 2 0 4 5 4 10 0 6 -5 10 -11 10 -5 0
-7 -4 -4 -10z"/>
<path d="M2215 8549 c-4 -6 -5 -12 -2 -15 2 -3 7 2 10 11 7 17 1 20 -8 4z"/>
<path d="M8866 8536 c3 -8 13 -17 22 -21 13 -5 13 -2 -3 15 -21 24 -26 25 -19
6z"/>
<path d="M2075 8400 c-3 -5 -1 -10 4 -10 6 0 11 5 11 10 0 6 -2 10 -4 10 -3 0
-8 -4 -11 -10z"/>
<path d="M1995 8320 c-3 -5 -1 -10 4 -10 6 0 11 5 11 10 0 6 -2 10 -4 10 -3 0
-8 -4 -11 -10z"/>
<path d="M6050 8259 c0 -5 5 -7 10 -4 6 3 10 8 10 11 0 2 -4 4 -10 4 -5 0 -10
-5 -10 -11z"/>
<path d="M5870 8211 c0 -6 4 -13 10 -16 6 -3 7 1 4 9 -7 18 -14 21 -14 7z"/>
<path d="M5775 8169 c-4 -6 -5 -12 -2 -15 2 -3 7 2 10 11 7 17 1 20 -8 4z"/>
<path d="M5630 8115 c5 -7 6 -16 2 -21 -4 -5 -3 -5 2 -1 15 12 15 34 0 34 -9
0 -11 -4 -4 -12z"/>
<path d="M5690 8119 c0 -5 5 -7 10 -4 6 3 10 8 10 11 0 2 -4 4 -10 4 -5 0 -10
-5 -10 -11z"/>
<path d="M5440 8080 c-9 -6 -10 -10 -3 -10 6 0 15 5 18 10 8 12 4 12 -15 0z"/>
<path d="M5390 8057 c0 -2 6 -10 14 -16 11 -9 16 -9 22 1 4 7 4 10 -1 6 -4 -4
-14 -3 -22 3 -7 6 -13 9 -13 6z"/>
<path d="M5215 8031 c-3 -5 -2 -12 3 -15 5 -3 9 1 9 9 0 17 -3 19 -12 6z"/>
<path d="M5279 8013 c-13 -17 -13 -17 6 -3 11 8 22 16 24 17 2 2 0 3 -6 3 -6
0 -17 -8 -24 -17z"/>
<path d="M9630 7921 c0 -6 4 -13 10 -16 6 -3 7 1 4 9 -7 18 -14 21 -14 7z"/>
<path d="M9555 7891 c-3 -5 -2 -12 3 -15 5 -3 9 1 9 9 0 17 -3 19 -12 6z"/>
<path d="M1599 7833 c-13 -16 -12 -17 4 -4 9 7 17 15 17 17 0 8 -8 3 -21 -13z"/>
<path d="M9055 7840 c-3 -5 -1 -10 4 -10 6 0 11 5 11 10 0 6 -2 10 -4 10 -3 0
-8 -4 -11 -10z"/>
<path d="M1576 7781 c9 -9 34 -9 34 -1 0 5 -9 8 -20 7 -10 -1 -17 -3 -14 -6z"/>
<path d="M7870 5760 c0 -5 5 -10 11 -10 5 0 7 5 4 10 -3 6 -8 10 -11 10 -2 0
-4 -4 -4 -10z"/>
<path d="M7716 5307 c3 -10 9 -15 12 -12 3 3 0 11 -7 18 -10 9 -11 8 -5 -6z"/>
<path d="M5255 5080 c3 -5 8 -10 11 -10 2 0 4 5 4 10 0 6 -5 10 -11 10 -5 0
-7 -4 -4 -10z"/>
<path d="M5015 5060 c3 -5 8 -10 11 -10 2 0 4 5 4 10 0 6 -5 10 -11 10 -5 0
-7 -4 -4 -10z"/>
<path d="M4954 5040 c0 -13 4 -16 10 -10 7 7 7 13 0 20 -6 6 -10 3 -10 -10z"/>
<path d="M6995 3600 c-3 -5 -1 -10 4 -10 6 0 11 5 11 10 0 6 -2 10 -4 10 -3 0
-8 -4 -11 -10z"/>
<path d="M6796 3315 c-9 -26 -7 -32 5 -12 6 10 9 21 6 23 -2 3 -7 -2 -11 -11z"/>
<path d="M6556 3082 c-3 -5 1 -9 9 -9 8 0 12 4 9 9 -3 4 -7 8 -9 8 -2 0 -6 -4
-9 -8z"/>
<path d="M5975 3000 c-3 -5 -1 -10 4 -10 6 0 11 5 11 10 0 6 -2 10 -4 10 -3 0
-8 -4 -11 -10z"/>
<path d="M6496 2978 c3 -5 10 -6 15 -3 13 9 11 12 -6 12 -8 0 -12 -4 -9 -9z"/>
<path d="M6176 2918 c3 -5 10 -6 15 -3 13 9 11 12 -6 12 -8 0 -12 -4 -9 -9z"/>
<path d="M6227 2899 c7 -7 15 -10 18 -7 3 3 -2 9 -12 12 -14 6 -15 5 -6 -5z"/>
<path d="M6290 2899 c0 -5 5 -7 10 -4 6 3 10 8 10 11 0 2 -4 4 -10 4 -5 0 -10
-5 -10 -11z"/>
<path d="M6196 2847 c3 -10 9 -15 12 -12 3 3 0 11 -7 18 -10 9 -11 8 -5 -6z"/>
<path d="M830 2645 c0 -7 30 -13 34 -7 3 4 -4 9 -15 9 -10 1 -19 0 -19 -2z"/>
<path d="M935 2500 c-3 -5 -1 -10 4 -10 6 0 11 5 11 10 0 6 -2 10 -4 10 -3 0
-8 -4 -11 -10z"/>
<path d="M4285 2340 c-3 -6 1 -7 9 -4 18 7 21 14 7 14 -6 0 -13 -4 -16 -10z"/>
<path d="M4350 2281 c0 -10 29 -36 34 -30 1 2 -6 12 -16 22 -10 9 -18 13 -18
8z"/>
<path d="M4435 2190 c-3 -5 -1 -10 4 -10 6 0 11 5 11 10 0 6 -2 10 -4 10 -3 0
-8 -4 -11 -10z"/>
<path d="M1125 2180 c-3 -6 1 -7 9 -4 18 7 21 14 7 14 -6 0 -13 -4 -16 -10z"/>
<path d="M4455 2140 c-3 -5 -1 -10 4 -10 6 0 11 5 11 10 0 6 -2 10 -4 10 -3 0
-8 -4 -11 -10z"/>
<path d="M1146 2118 c3 -5 10 -6 15 -3 13 9 11 12 -6 12 -8 0 -12 -4 -9 -9z"/>
<path d="M4513 2087 c0 -8 6 -14 14 -14 9 0 10 4 2 14 -6 7 -12 13 -14 13 -1
0 -2 -6 -2 -13z"/>
<path d="M8955 1901 c-3 -5 -2 -12 3 -15 5 -3 9 1 9 9 0 17 -3 19 -12 6z"/>
<path d="M8907 1850 c-16 -16 -25 -30 -19 -30 9 0 33 25 46 48 11 20 3 14 -27
-18z"/>
<path d="M4730 1825 c0 -5 5 -17 10 -25 5 -8 10 -10 10 -5 0 6 -5 17 -10 25
-5 8 -10 11 -10 5z"/>
<path d="M1466 1802 c-3 -5 1 -9 9 -9 8 0 12 4 9 9 -3 4 -7 8 -9 8 -2 0 -6 -4
-9 -8z"/>
<path d="M1577 1655 c-4 -8 -3 -16 1 -19 4 -3 9 4 9 15 2 23 -3 25 -10 4z"/>
<path d="M4856 1658 c3 -5 10 -6 15 -3 13 9 11 12 -6 12 -8 0 -12 -4 -9 -9z"/>
<path d="M1650 1586 c0 -2 7 -7 16 -10 8 -3 12 -2 9 4 -6 10 -25 14 -25 6z"/>
<path d="M4975 1540 c3 -5 8 -10 11 -10 2 0 4 5 4 10 0 6 -5 10 -11 10 -5 0
-7 -4 -4 -10z"/>
<path d="M1836 1422 c-2 -4 -1 -14 4 -22 7 -11 9 -9 7 8 -1 24 -3 26 -11 14z"/>
<path d="M8546 1402 c-3 -5 1 -9 9 -9 8 0 12 4 9 9 -3 4 -7 8 -9 8 -2 0 -6 -4
-9 -8z"/>
<path d="M1913 1275 c0 -8 4 -12 9 -9 5 3 6 10 3 15 -9 13 -12 11 -12 -6z"/>
<path d="M5236 1247 c3 -10 9 -15 12 -12 3 3 0 11 -7 18 -10 9 -11 8 -5 -6z"/>
<path d="M2055 1220 c-3 -5 -1 -10 4 -10 6 0 11 5 11 10 0 6 -2 10 -4 10 -3 0
-8 -4 -11 -10z"/>
<path d="M5290 1220 c0 -5 5 -10 11 -10 5 0 7 5 4 10 -3 6 -8 10 -11 10 -2 0
-4 -4 -4 -10z"/>
<path d="M2216 1127 c3 -10 9 -15 12 -12 3 3 0 11 -7 18 -10 9 -11 8 -5 -6z"/>
<path d="M5350 1136 c0 -2 8 -10 18 -17 15 -13 16 -12 3 4 -13 16 -21 21 -21
13z"/>
<path d="M7896 942 c-3 -5 1 -9 9 -9 8 0 12 4 9 9 -3 4 -7 8 -9 8 -2 0 -6 -4
-9 -8z"/>
<path d="M5530 906 c0 -2 7 -7 16 -10 8 -3 12 -2 9 4 -6 10 -25 14 -25 6z"/>
<path d="M2575 860 c-3 -5 -1 -10 4 -10 6 0 11 5 11 10 0 6 -2 10 -4 10 -3 0
-8 -4 -11 -10z"/>
<path d="M7770 860 c0 -5 5 -10 11 -10 5 0 7 5 4 10 -3 6 -8 10 -11 10 -2 0
-4 -4 -4 -10z"/>
<path d="M7690 820 c0 -5 5 -10 11 -10 5 0 7 5 4 10 -3 6 -8 10 -11 10 -2 0
-4 -4 -4 -10z"/>
<path d="M7486 718 c3 -5 10 -6 15 -3 13 9 11 12 -6 12 -8 0 -12 -4 -9 -9z"/>
<path d="M2850 706 c0 -2 7 -7 16 -10 8 -3 12 -2 9 4 -6 10 -25 14 -25 6z"/>
<path d="M7546 702 c-3 -5 1 -9 9 -9 8 0 12 4 9 9 -3 4 -7 8 -9 8 -2 0 -6 -4
-9 -8z"/>
<path d="M2915 690 c-4 -6 -11 -7 -17 -4 -7 4 -8 2 -4 -5 6 -9 11 -9 22 0 14
11 18 19 10 19 -3 0 -8 -5 -11 -10z"/>
<path d="M2989 643 c-13 -16 -12 -17 4 -4 16 13 21 21 13 21 -2 0 -10 -8 -17
-17z"/>
<path d="M3013 625 c0 -8 4 -12 9 -9 5 3 6 10 3 15 -9 13 -12 11 -12 -6z"/>
<path d="M7373 615 c0 -8 4 -12 9 -9 5 3 6 10 3 15 -9 13 -12 11 -12 -6z"/>
<path d="M3055 600 c3 -5 8 -10 11 -10 2 0 4 5 4 10 0 6 -5 10 -11 10 -5 0 -7
-4 -4 -10z"/>
<path d="M7266 598 c3 -4 9 -8 15 -8 5 0 9 4 9 8 0 5 -7 9 -15 9 -8 0 -12 -4
-9 -9z"/>
<path d="M3153 535 c0 -8 4 -12 9 -9 5 3 6 10 3 15 -9 13 -12 11 -12 -6z"/>
<path d="M3197 533 c-10 -9 -9 -23 1 -23 5 0 9 7 9 15 0 17 -1 18 -10 8z"/>
<path d="M3233 515 c0 -8 4 -12 9 -9 5 3 6 10 3 15 -9 13 -12 11 -12 -6z"/>
<path d="M3295 500 c3 -5 8 -10 11 -10 2 0 4 5 4 10 0 6 -5 10 -11 10 -5 0 -7
-4 -4 -10z"/>
<path d="M3350 506 c0 -2 7 -7 16 -10 8 -3 12 -2 9 4 -6 10 -25 14 -25 6z"/>
<path d="M7040 500 c-9 -6 -10 -10 -3 -10 6 0 15 5 18 10 8 12 4 12 -15 0z"/>
<path d="M7090 499 c0 -5 5 -7 10 -4 6 3 10 8 10 11 0 2 -4 4 -10 4 -5 0 -10
-5 -10 -11z"/>
<path d="M3490 460 c0 -5 5 -10 11 -10 5 0 7 5 4 10 -3 6 -8 10 -11 10 -2 0
-4 -4 -4 -10z"/>
<path d="M6970 459 c0 -5 5 -7 10 -4 6 3 10 8 10 11 0 2 -4 4 -10 4 -5 0 -10
-5 -10 -11z"/>
<path d="M6857 435 c-4 -8 -3 -16 1 -19 4 -3 9 4 9 15 2 23 -3 25 -10 4z"/>
<path d="M3610 420 c0 -5 5 -10 11 -10 5 0 7 5 4 10 -3 6 -8 10 -11 10 -2 0
-4 -4 -4 -10z"/>
<path d="M6769 403 c-13 -16 -12 -17 4 -4 9 7 17 15 17 17 0 8 -8 3 -21 -13z"/>
<path d="M3716 367 c3 -10 9 -15 12 -12 3 3 0 11 -7 18 -10 9 -11 8 -5 -6z"/>
<path d="M3750 376 c0 -2 8 -10 18 -17 15 -13 16 -12 3 4 -13 16 -21 21 -21
13z"/>
<path d="M6681 356 c-9 -11 -9 -16 1 -22 7 -4 10 -4 6 1 -4 4 -3 14 3 22 6 7
9 13 6 13 -2 0 -10 -6 -16 -14z"/>
<path d="M3916 313 c-6 -14 -5 -15 5 -6 7 7 10 15 7 18 -3 3 -9 -2 -12 -12z"/>
<path d="M6510 319 c0 -5 5 -7 10 -4 6 3 10 8 10 11 0 2 -4 4 -10 4 -5 0 -10
-5 -10 -11z"/>
<path d="M3985 299 c-3 -4 2 -6 10 -5 21 3 28 13 10 13 -9 0 -18 -4 -20 -8z"/>
<path d="M6425 300 c-3 -6 1 -7 9 -4 18 7 21 14 7 14 -6 0 -13 -4 -16 -10z"/>
<path d="M6474 289 c-3 -6 -2 -15 3 -20 5 -5 9 -1 9 11 0 23 -2 24 -12 9z"/>
<path d="M6353 265 c0 -8 4 -12 9 -9 5 3 6 10 3 15 -9 13 -12 11 -12 -6z"/>
<path d="M6275 261 c-3 -5 -2 -12 3 -15 5 -3 9 1 9 9 0 17 -3 19 -12 6z"/>
<path d="M4230 241 c0 -6 4 -13 10 -16 6 -3 7 1 4 9 -7 18 -14 21 -14 7z"/>
<path d="M4293 231 c0 -11 5 -18 9 -15 4 3 5 11 1 19 -7 21 -12 19 -10 -4z"/>
<path d="M4350 226 c0 -2 7 -7 16 -10 8 -3 12 -2 9 4 -6 10 -25 14 -25 6z"/>
<path d="M6210 219 c0 -5 5 -7 10 -4 6 3 10 8 10 11 0 2 -4 4 -10 4 -5 0 -10
-5 -10 -11z"/>
<path d="M6110 216 c0 -2 8 -10 18 -17 15 -13 16 -12 3 4 -13 16 -21 21 -21
13z"/>
<path d="M4210 201 c0 -6 4 -13 10 -16 6 -3 7 1 4 9 -7 18 -14 21 -14 7z"/>
<path d="M5990 200 c0 -5 5 -10 11 -10 5 0 7 5 4 10 -3 6 -8 10 -11 10 -2 0
-4 -4 -4 -10z"/>
<path d="M4596 182 c-2 -4 -1 -14 4 -22 7 -11 9 -9 7 8 -1 24 -3 26 -11 14z"/>
<path d="M5867 179 c7 -7 15 -10 18 -7 3 3 -2 9 -12 12 -14 6 -15 5 -6 -5z"/>
<path d="M4830 161 c0 -6 4 -13 10 -16 6 -3 7 1 4 9 -7 18 -14 21 -14 7z"/>
<path d="M5735 159 c-3 -4 2 -6 10 -5 21 3 28 13 10 13 -9 0 -18 -4 -20 -8z"/>
<path d="M5225 149 c-4 -6 -5 -12 -2 -15 2 -3 7 2 10 11 7 17 1 20 -8 4z"/>
<path d="M4656 138 c3 -4 11 -5 19 -1 21 7 19 12 -4 10 -11 0 -18 -5 -15 -9z"/>
<path d="M5060 146 c0 -2 8 -10 18 -17 15 -13 16 -12 3 4 -13 16 -21 21 -21
13z"/>
<path d="M5269 123 c-13 -16 -12 -17 4 -4 9 7 17 15 17 17 0 8 -8 3 -21 -13z"/>
<path d="M5490 119 c0 -5 5 -7 10 -4 6 3 10 8 10 11 0 2 -4 4 -10 4 -5 0 -10
-5 -10 -11z"/>
<path d="M5110 106 c0 -2 7 -7 16 -10 8 -3 12 -2 9 4 -6 10 -25 14 -25 6z"/>
<path d="M5175 100 c3 -5 8 -10 11 -10 2 0 4 5 4 10 0 6 -5 10 -11 10 -5 0 -7
-4 -4 -10z"/>
<path d="M5533 95 c0 -8 4 -12 9 -9 5 3 6 10 3 15 -9 13 -12 11 -12 -6z"/>
</g>
</svg>
